<?xml version="1.0" encoding="UTF-8"?>
<svg xmlns="http://www.w3.org/2000/svg" version="1.1" viewBox="0 0 512 512">
  <!-- Generator: Adobe Illustrator 29.8.3, SVG Export Plug-In . SVG Version: 2.1.1 Build 3)  -->
  <defs>
    <style>
      .st0 {
        fill: #fff;
      }

      .st1 {
        opacity: .25;
      }

      .st2 {
        fill: none;
        stroke: #000;
        stroke-miterlimit: 10;
        stroke-width: 2px;
      }

      .st3 {
        fill: #a2e9ff;
      }

      .st4 {
        display: none;
      }
    </style>
  </defs>
  <g id="_レイヤー_1" data-name="レイヤー_1" class="st4">
    <g class="st1">
      <path d="M146.41,164.43c1.14.41,2.35.28,3.49-.06s2.28-1.05,3.45-1.05c1.04,0,1.47.99,1.35,1.94-.19,1.43-1.52,2.56-2.55,3.44-2.27,1.94-4.96,3.45-7.78,4.41-1.23.42-2.55.86-3.86.91-.81.03-2.34.02-2.84-.79s.52-2.18.95-2.86c.62-.95,1.38-1.8,2.24-2.55,1.78-1.57,4.01-2.62,6.32-3.14s4.53-.47,6.71.16c.94.27,2.48.7,3.1,1.52.76,1.01-.94,2.94-1.54,3.72-1.74,2.26-4.02,4.09-6.57,5.36-1.74.87-5.4,2.62-7.02.79-1.2-1.36-.9-3.67-.02-5.11,1.3-2.14,4.24-2.85,6.54-3.16,1.36-.18,2.77-.29,4.14-.3.46,0,1.27-.05,1.58.39s-.1,1.13-.34,1.5c-1.44,2.29-4.74,3.76-7.22,4.58-1.35.45-2.83.85-4.26.91-.45.02-.98.07-1.18-.4s.09-1.19.32-1.62c.96-1.84,3.22-2.49,5.13-2.73,1.38-.17,2.78-.15,4.16-.06.43.03,1.62-.06,1.95.27s-.04.93-.24,1.29c-.74,1.32-2.1,2.47-3.27,3.4-1.05.83-2.42,1.7-3.82,1.63-1.1-.05-2.54-.79-2.83-1.93-.36-1.38,1.33-2.25,2.34-2.76,3.19-1.59,6.92-1.83,10.32-.89l-.9-2.2c-1.29,2.88-4.5,9.34-8.49,5.92-1.83-1.57.03-3.03,1.69-3.62,2.69-.95,5.52-.85,8.18.15l-.9-2.2c-1.3,2.58-3.28,4.69-5.82,6.09-1.66.91-5.01,2.37-5.34-.55-.25-2.22,1.3-4.46,3.47-4.99.94-.23,2.02-.08,2.31.96.15.56.14,1.31-.5,1.46-1.88.44-1.08,3.33.8,2.89,2.81-.66,3.45-4.24,2.03-6.43-2.02-3.13-6.4-2.03-8.72.09-1.99,1.82-2.97,5-2.1,7.59.45,1.33,1.39,2.43,2.73,2.92,1.76.65,3.63.1,5.29-.6,3.64-1.54,6.66-4.37,8.45-7.9.47-.92.04-1.85-.9-2.2-3.6-1.35-7.83-1.26-11.29.49-2.89,1.45-4.23,4.75-2.03,7.42,1.89,2.3,5.22,2.98,7.85,1.66,2.99-1.5,4.59-4.7,5.89-7.61.39-.87.12-1.92-.9-2.2-4.2-1.16-8.73-.76-12.63,1.2-1.65.82-3.32,2.09-3.76,3.98-.41,1.74.36,3.53,1.69,4.67,3.28,2.83,7.34,1.39,10.3-1.11,1.43-1.21,2.97-2.62,3.76-4.35s.66-3.8-1.13-4.82c-1.45-.83-3.62-.73-5.24-.74s-3.42.15-5.05.62c-3.04.89-6.18,3.47-5.79,6.97.54,4.89,6.97,3.12,9.96,2.02,3.36-1.24,8.24-3.61,9.05-7.52.4-1.95-.68-3.76-2.58-4.36-1.78-.56-3.98-.19-5.79.01-3.57.4-7.73,1.51-9.61,4.91-1.42,2.57-1.5,6.17.54,8.44,2.75,3.06,7.47,1.36,10.57-.16,3.52-1.72,6.55-4.45,8.66-7.74,1.11-1.73,1.91-3.91.54-5.73-1.06-1.4-2.97-2.15-4.6-2.64-6.53-1.97-14.12.61-18.2,6.04-1.08,1.44-2.22,3.29-2.03,5.15.17,1.69,1.4,2.86,2.94,3.42,3.48,1.27,7.64-.38,10.78-1.88,1.93-.92,3.72-2.08,5.39-3.42,1.54-1.24,3.07-2.7,3.73-4.62.58-1.7.29-3.82-1.01-5.13s-3.13-1.42-4.81-.94c-1.38.39-2.94,1.45-4.39.93-1.82-.65-2.61,2.25-.8,2.89h0Z"/>
    </g>
    <g class="st1">
      <path d="M298.45,170.02c-1.72,2.45-5.45,1.77-7.76.69-2.89-1.35-6.09-4.35-6.06-7.77s3.43-5.2,6.37-5.32c3.94-.16,7.5,2.31,10.51,4.56,1.52,1.14,3.16,2.37,4.08,4.07.69,1.27.96,3.21-.14,4.35-1.18,1.23-3.49,1.17-5.06,1.13-1.69-.05-3.35-.37-4.96-.9-3.22-1.07-6.12-3.07-8.27-5.68-.53-.65-1.01-1.35-1.43-2.08-.21-.36-.46-.73-.58-1.13s-.11-.23.43-.22c1.86.04,3.88.66,5.66,1.17,3.85,1.11,7.51,2.82,10.85,5.04,1.52,1.01,3.19,2.1,4.16,3.7.34.57.72,1.34.39,2-.4.8-1.63.98-2.42,1.06-3.7.41-7.23-1.21-10.14-3.36-1.59-1.17-3.03-2.56-4.36-4.01-.68-.74-3.21-3.19-1.42-3.85.69-.26,1.54-.15,2.26-.11,1.11.06,2.21.18,3.31.38,2.01.37,4,.93,5.89,1.71s3.67,1.65,5.14,2.94c1.26,1.1,2.7,2.74,2.47,4.54-.39,3.1-4.6,3.23-6.92,2.73-3.6-.78-6.96-2.77-9.54-5.37-.58-.59-3.04-2.93-2.45-3.71.73-.97,3.52-.2,4.36-.03,2.18.44,4.34,1.03,6.44,1.78,1.54.55,3.22,1.25,4.31,2.52s.95,2.95-.17,4.18c-1.26,1.39-3.15,1.72-4.94,1.46-3.74-.54-7.33-2.98-9.96-5.59-1.31-1.3-2.45-2.74-3.41-4.31-.4-.65-1.13-1.55-.6-2.27s1.79-.91,2.57-.96c2.06-.13,4.09.72,5.89,1.64,1.65.84,3.46,1.75,4.85,3,1.1.99,2.05,2.5,1.43,4.02-.71,1.72-2.7.81-3.77,0-1.56-1.18-2.81-2.89-3.88-4.5-.89-1.34-2.65-3.63-1.81-5.32.74-1.5,2.82-1.66,4.24-1.29,1.82.47,3.57,1.61,5.09,2.7.98.7,2.81,2.15,2.17,3.58-.44.99-1.88,1.16-2.81,1-1.52-.26-2.48-1.61-3.11-2.91-.69-1.43-1.31-3.26-1.44-4.84-.03-.46-.12-.99.35-1.12.6-.17,1.97.8,2.43,1.11,1.33.89,2.47,2.3,2.71,3.92.2,1.41-.3,3.05-1.44,3.96-1.43,1.14-3.27.68-4.68-.22-1.55-.98-2.81-2.49-3.73-4.06-.8-1.35-1.66-3.16-1.27-4.78.88-3.62,5.97-1.35,7.91-.18,3.12,1.88,6.24,4.55,6.85,8.35.56,3.47-1.44,6.45-4.93,6.99-3.24.5-6.3-.93-8.59-3.13-1.33-1.27-2.44-2.74-3.45-4.27-.51-.77-1-1.56-1.48-2.35-.2-.34-.42-.67-.61-1.01-.32-.59-.3-.6.3-.79,3.94-1.24,8.27,1.01,11.48,3.11,2.36,1.54,7.05,4.64,4.84,7.99s-7.24,2.11-10.28.53c-3.23-1.67-6.02-4.17-7.98-7.24-.71-1.11-2.14-3.59.08-3.85,1.69-.2,3.58.66,5.08,1.35,3.35,1.56,6.23,3.85,8.56,6.72l-.23-1.82c-.07.15-.18.21-.34.2-1.89-.32-2.7,2.57-.8,2.89,1.56.26,2.85-.24,3.72-1.57.39-.6.17-1.31-.23-1.82-3.28-4.05-7.93-7.31-13-8.63-2.12-.55-4.86-.55-6.25,1.44-1.64,2.36-.16,5.2,1.26,7.26,2.92,4.23,7.27,7.67,12.23,9.16,2.54.76,5.37.86,7.78-.37,2.11-1.08,3.74-3.16,3.95-5.56.22-2.56-1.33-4.84-3.15-6.48-2.04-1.85-4.47-3.43-6.94-4.64s-5.28-2.11-8.09-1.94c-2.22.13-5.57.89-5.26,3.79.13,1.26,1.07,2.43,1.72,3.49.69,1.12,1.41,2.23,2.2,3.29,1.55,2.09,3.32,4.01,5.53,5.41,3.65,2.31,8.97,2.82,12.59.14,4.31-3.2,4.19-9.41,1.35-13.55-2.62-3.81-7.48-7.3-12.17-7.78-2.25-.23-4.52.51-5.81,2.47-1.4,2.13-.93,4.82.01,7.02,1.82,4.23,6.55,9.45,11.69,7.86,4.81-1.48,5.81-7.65,3.06-11.38-1.37-1.86-3.54-3.45-5.83-3.92-2.55-.53-4.19,1.45-4.12,3.86.07,2.27.96,4.85,2.02,6.84s2.76,3.64,5.02,4.01c1.92.32,4.1-.15,5.4-1.69,1.51-1.78,1.2-4.25-.14-6.03-1.49-1.97-3.89-3.43-6.09-4.5-2.32-1.13-4.91-1.67-7.34-.55s-3.55,3.35-3.09,5.88c.5,2.72,2.52,5.3,4.23,7.39,1.61,1.97,3.66,4.05,6.32,4.35,2.36.27,4.45-1.25,5.01-3.55,1.29-5.35-4.58-8.54-8.58-10.42-2.57-1.21-5.4-2.08-8.25-1.42-2.44.56-4.72,2.54-4,5.27.64,2.43,2.73,4.83,4.42,6.61,1.79,1.89,3.9,3.53,6.18,4.79,4.42,2.45,10.76,3.86,14.19-.94,1.36-1.91,1.54-4.44.33-6.47s-3.51-3.27-5.7-4.12c-2.91-1.14-6.01-1.94-9.1-2.41-1.91-.29-4.29-.18-5.64,1.4-1.87,2.2.14,4.78,1.63,6.53,1.65,1.93,3.66,3.59,5.86,4.87,3.85,2.24,9.06,3.91,13.33,1.85,2.01-.97,3.38-2.94,3.47-5.19.11-2.55-1.53-4.9-3.37-6.51-4.21-3.69-10.33-5.45-15.81-5.87-2.22-.17-5.02-.16-6.19,2.12-1.26,2.45.75,4.89,2.31,6.62,3.46,3.86,7.97,7.5,13.22,8.39,2.37.4,5.41.47,7.45-1.02,2.14-1.56,2.12-4.27.85-6.38-1.37-2.28-3.75-3.84-5.95-5.24-2.34-1.48-4.83-2.71-7.41-3.71s-5.28-1.75-8.03-2.2c-2.17-.36-5.35-.35-5.38,2.66-.02,2.26,2.14,4.76,3.57,6.33,1.63,1.79,3.63,3.31,5.78,4.42,4.05,2.08,9.73,3.42,14.13,1.65,2.33-.94,3.67-3.13,3.62-5.63s-1.45-4.76-3.27-6.48c-2.02-1.9-4.42-3.6-6.82-4.97s-5.02-2.35-7.74-2.33c-4.51.03-9.27,2.95-9.68,7.77s3.79,9.29,7.97,11.12c3.87,1.7,8.77,1.81,11.41-1.97,1.11-1.58-1.49-3.09-2.59-1.51h0Z"/>
    </g>
    <g class="st1">
      <path d="M131.68,181.25c-.57.43-.19-1.21-.13-1.38.34-.88.88-1.72,1.41-2.5.98-1.44,2.19-2.72,3.52-3.85,2.73-2.3,6.06-3.86,9.45-4.92s7.2-1.69,10.89-1.88c.84-.04,3.57-.36,3.99.75.25.66-.87,1.48-1.27,1.84-.85.77-1.73,1.51-2.63,2.22-3.5,2.75-7.4,5.05-11.5,6.8-2.94,1.26-8.64,3.58-10.29-.68-1.46-3.76,1.85-7.11,4.73-8.97,3.64-2.36,7.89-3.79,12.22-4.1,2.56-.18,10.65-.64,8.76,3.92-.78,1.88-2.41,3.26-3.98,4.46-1.8,1.39-3.72,2.63-5.71,3.73s-4.07,2.07-6.22,2.85c-1.85.68-3.91,1.3-5.91,1.05-3.84-.5-4.9-4.83-3.19-7.87,2.01-3.57,6.47-5.36,10.35-5.84,2.21-.27,4.49-.16,6.65.37,1.01.25,2.05.55,2.99,1.01,1.07.52,1.5,1.06,1.08,2.24-1.31,3.7-4.78,6.46-7.86,8.67-2.62,1.88-6.44,5.36-9.63,2.74-2.45-2.01-3.02-5.66-1.26-8.27,1.97-2.92,5.82-4.13,9.2-4,1.6.06,3.93.46,4.51,2.22.63,1.92-.8,4.29-1.96,5.73-1.23,1.52-2.77,2.78-4.35,3.9-1.71,1.21-3.6,2.7-5.67,3.2-.9.21-1.81.2-2.57-.38-.46-.35-1.1-1.11-.82-1.75.76-1.75-1.83-3.28-2.59-1.51-1,2.33,0,4.76,2.18,6.03,2.5,1.46,5.43.49,7.74-.86,4.42-2.59,9.69-6.31,10.94-11.61.63-2.65-.14-5.29-2.55-6.72-2.13-1.27-4.88-1.43-7.28-1.12-4.54.57-9.42,3.35-10.58,8.09-1.03,4.21,1.32,9.18,5.47,10.67,2.44.88,4.96.04,7.08-1.26,2.36-1.44,4.66-3.11,6.78-4.89,3.02-2.53,9.56-9.34,4.74-13.03-2.16-1.65-5.31-2.24-7.94-2.5-2.9-.28-5.9.05-8.66.97-4.76,1.58-9.53,5.18-9.79,10.59-.11,2.34.74,4.85,2.55,6.4,2.06,1.75,4.74,2.05,7.33,1.66,2.79-.42,5.48-1.58,8.02-2.77,2.78-1.31,5.42-2.89,7.89-4.71,2.11-1.56,4.25-3.25,5.46-5.65,1.14-2.25,1.3-4.97-.69-6.8s-5.27-1.93-7.79-2c-2.85-.08-5.73.28-8.48,1.03-4.96,1.35-10.81,4.19-13.37,8.91s-.7,10.84,4.94,11.56c2.66.34,5.28-.55,7.71-1.53,2.78-1.13,5.47-2.46,8.02-4.03s4.86-3.26,7.07-5.16c1.78-1.53,4.17-3.76,2.71-6.33-1.14-2-3.8-2.34-5.87-2.26-2.4.09-4.79.35-7.15.76-4.8.84-9.6,2.44-13.67,5.17-1.94,1.31-3.72,2.86-5.19,4.68s-3.4,4.4-3.18,6.91c.2,2.21,2.84,4.12,4.85,2.61,1.53-1.14.03-3.75-1.51-2.59h0Z"/>
    </g>
    <g class="st1">
      <path d="M286.14,163.6c4.24-1,8.86.19,12.25,2.89,1.7,1.35,3.16,3.1,4.02,5.11.35.81.82,2.13.14,2.91-.57.65-1.67.58-2.43.45-2.31-.4-4.55-1.72-6.51-2.95-2.26-1.42-4.32-3.13-6.14-5.08-.37-.39-.72-.79-1.07-1.2-.24-.28-.82-.81-.84-1.21-.03-.56.93-.78,1.44-.88.99-.18,1.93.02,2.89.26,1.4.35,2.76.82,4.06,1.45s2.57,1.38,3.73,2.26c.73.55,2.44,1.61,1.92,2.72-.47,1.01-1.82,1.24-2.78.99-1.39-.36-2.55-1.36-3.63-2.27-1.47-1.24-3.6.88-2.12,2.12,2.55,2.14,5.85,4.43,9.2,2.54,1.36-.77,2.43-2.19,2.44-3.79,0-1.84-1.34-3.19-2.68-4.25-2.83-2.25-6.14-3.91-9.67-4.73-2.5-.58-6.36-.61-7.55,2.24-.7,1.68.21,3.16,1.26,4.44s2.3,2.56,3.59,3.69c2.6,2.28,5.53,4.18,8.71,5.57,2.56,1.12,6.2,2.1,8.38-.32,2.39-2.65.51-6.6-1.28-9.02-4.1-5.56-11.38-8.39-18.13-6.8-1.88.44-1.08,3.34.8,2.89h0Z"/>
    </g>
    <g class="st1">
      <path d="M77.7,79.76c6.3-12.72,18.78-20.71,30.78-27.45,13.42-7.54,27.63-13.65,42.32-18.23s30.49-7.68,46.15-9.15c8.45-.79,16.93-1.23,25.41-1.62,7.86-.37,15.73-.69,23.59-.78,15.64-.18,31.4.55,46.72,3.92,7.62,1.68,15.12,3.99,22.27,7.12s14.04,6.97,20.69,11.11,13.13,8.56,19.6,12.98,12.68,8.78,18.28,14.08c11.1,10.52,18.13,24.54,23.39,38.72,5.36,14.46,8.7,29.66,9.89,45.03.59,7.68.66,15.4.19,23.09s-1.1,15.05-3.09,22.2c-.9,3.23-2.24,6.36-4.47,8.91-1.26,1.45.85,3.58,2.12,2.12,4.86-5.58,6.12-13.03,7.11-20.12,1.08-7.76,1.64-15.59,1.64-23.43-.01-15.75-2.24-31.53-6.58-46.67-2.18-7.6-4.91-15.04-8.14-22.26-3.14-7.01-6.78-13.83-11.36-20.01-9.44-12.74-22.95-21.29-35.93-30.01-13.3-8.94-27.06-17.36-42.37-22.38s-31.2-6.85-47.1-7.31-32.9.35-49.27,1.35c-16.45,1-32.77,3.04-48.75,7.15s-30.04,9.45-44.11,16.46c-6.84,3.41-13.58,7.12-19.96,11.33-5.85,3.86-11.46,8.28-15.94,13.71-2.2,2.66-4.11,5.53-5.64,8.62-.85,1.72,1.73,3.25,2.59,1.51h0Z"/>
    </g>
    <g class="st1">
      <path d="M91.01,76.11c-12.33,8.24-22.09,19.65-29.84,32.2s-14.22,27.39-19.28,41.88-9.2,30.67-11.86,46.44-4.1,31.82-4.41,47.85c-.32,16.17.49,32.35,2.27,48.42s4.52,32.16,8.12,47.99,8.02,31.43,13.24,46.77,11.33,30.54,19.37,44.69c7.56,13.31,16.89,25.69,28.34,35.9,10.79,9.62,23.38,17.37,37.21,21.73,3.37,1.06,6.8,1.91,10.28,2.54.89.16,1.97-.4,1.9-1.45-.74-11.08,6.03-21.66,15.74-26.71,5.01-2.61,10.59-3.39,16.16-2.58,6.3.92,12.23,3.45,18.11,5.79s11.93,4.6,18.31,5.19c5.58.52,11.32-.41,16.51-2.5s10.21-5.42,14.07-9.7c1.88-2.08,3.52-4.38,4.85-6.84s2.43-5.01,4.03-7.29,3.9-4.02,6.79-4.09c3.25-.08,6.32,1.51,9.1,3.01,5.17,2.78,10.28,5.26,16,6.68,10.79,2.68,22.34,2.25,32.96-1.04,5.35-1.66,10.51-4.04,15.19-7.12,2.29-1.51,4.48-3.19,6.53-5.02,2.24-2,4.15-4.3,6.31-6.38,2.28-2.19,4.99-3.67,8.2-3.75,2.87-.07,5.69.79,8.31,1.9,5.93,2.5,11.19,6.34,17.15,8.8,12.28,5.07,26.31,4.46,38.87.76,13.26-3.9,25.18-11.27,36.47-19.06,2.83-1.95,5.63-3.95,8.43-5.94,1.56-1.11.06-3.71-1.51-2.59-11.46,8.15-23.09,16.47-36.16,21.86-12.42,5.11-26.52,7.51-39.69,3.98-6.4-1.72-11.85-5.19-17.64-8.26-5.17-2.74-11.12-5.4-17.09-4.09-6.24,1.37-9.75,7.18-14.3,11.13-4.22,3.66-9.05,6.61-14.17,8.81-10.23,4.4-21.86,5.86-32.85,4-5.51-.93-10.89-2.66-15.84-5.26-5.43-2.85-11.76-7.25-18.12-4.6-5.32,2.21-7.27,8.04-9.89,12.67-2.82,4.99-7,9.13-11.9,12.08s-10.5,4.73-16.21,4.97c-6.25.26-12.27-1.52-18.07-3.7-11.31-4.25-23.23-10.33-35.54-6.42-10.47,3.33-19.01,12.55-21.44,23.29-.6,2.63-.82,5.35-.64,8.04l1.9-1.45c-14.1-2.57-27.21-8.82-38.66-17.36s-21.7-19.96-29.76-32.24c-8.78-13.37-15.48-27.99-21.05-42.95s-10.25-30.35-14.19-45.85-7.05-31.13-9.26-46.93-3.5-31.8-3.73-47.79.58-31.58,2.58-47.24c1.99-15.66,5.22-31.17,9.73-46.3,4.4-14.75,9.96-29.27,17.07-42.94,6.73-12.94,15.11-25.22,26.13-34.89,2.66-2.34,5.47-4.49,8.42-6.46,1.6-1.07.1-3.67-1.51-2.59h0Z"/>
    </g>
    <g class="st1">
      <path d="M418.5,209.47v-4.24c0-.78-.69-1.54-1.5-1.5s-1.5.66-1.5,1.5v4.24c0,.78.69,1.54,1.5,1.5s1.5-.66,1.5-1.5h0Z"/>
    </g>
    <g class="st1">
      <path d="M417.5,178.98c.13-4.42-.8-8.72-2.65-12.73-.78-1.69-2.95-.36-2.74,1.16,2.87,20.51,2,41.3.61,61.89s-3.18,39.56-2.77,59.41c.39,18.82,2.77,37.85,9.42,55.55,5.64,15.01,14.54,28.75,26.5,39.5,11.4,10.23,25.46,17.56,40.77,19.38,1.88.22,3.76.36,5.65.41l-1.5-1.5c-.51,7.23-6.2,13.46-13.25,14.89-1.89.38-1.09,3.27.8,2.89,8.41-1.7,14.85-9.28,15.46-17.78.06-.83-.74-1.48-1.5-1.5-15.11-.44-29.45-6.69-41.08-16.16-12.01-9.78-21.41-22.7-27.38-36.96-7.2-17.21-10.06-35.87-10.76-54.42-.73-19.39.87-38.74,2.25-58.06s2.65-40.63.59-60.88c-.25-2.5-.56-4.98-.91-7.47l-2.74,1.16c1.63,3.52,2.35,7.35,2.24,11.22-.06,1.93,2.94,1.93,3,0h0Z"/>
    </g>
    <g class="st1">
      <path d="M411.07,155.29c2.7,25.08,5.29,50.21,6.08,75.43.39,12.53.33,25.07-.39,37.59-.7,12.24-2.44,24.3-3.87,36.46s-2.06,25.95,2.68,38.09c.7,1.78,3.6,1,2.89-.8-4.23-10.81-4.11-22.5-2.95-33.88,1.22-12.01,3.16-23.9,3.99-35.95,1.71-24.89.71-49.88-1.3-74.72-1.15-14.1-2.62-28.16-4.14-42.22-.2-1.9-3.21-1.92-3,0h0Z"/>
    </g>
    <g class="st1">
      <path d="M445.77,379.94c2.91,8.53,8.12,16.2,14.99,22.04,3.4,2.89,7.16,5.36,11.22,7.23,2.19,1.01,4.54,1.71,6.61,2.96,1.71,1.03,3.62,3.06,2.99,5.25-.39,1.34-1.62,2.31-2.6,3.23-1.15,1.08-2.32,2.15-3.51,3.19-2.46,2.16-4.98,4.25-7.58,6.24-1.51,1.16-.02,3.77,1.51,2.59,2.36-1.81,4.68-3.68,6.94-5.62s4.53-3.77,6.43-5.94c1.61-1.85,2.39-4.14,1.58-6.53s-2.52-4.03-4.6-5.21c-2.2-1.24-4.66-1.98-6.94-3.07-2.15-1.04-4.22-2.24-6.19-3.59-3.89-2.66-7.35-5.93-10.3-9.61-3.33-4.16-5.94-8.92-7.66-13.96-.62-1.82-3.52-1.04-2.89.8h0Z"/>
    </g>
    <g class="st1">
      <path d="M479.87,408.71c1.8.89,2.57,2.7,2.57,4.65,0,2.15-.95,4-2.44,5.52-1.73,1.77-3.93,2.98-6.12,4.09-2.65,1.35-5.34,2.64-8.02,3.93-10.64,5.15-21.49,10.02-32.96,13-3.21.83-6.46,1.43-9.72,2.06s-6.21,1.39-9.02,2.94c-.66.37-1,1.4-.54,2.05,1.78,2.5,4.98,3.71,7.93,2.64,1.8-.65,1.02-3.55-.8-2.89-1.62.59-3.51.2-4.55-1.26l-.54,2.05c2.71-1.5,5.72-2.16,8.73-2.72s6.21-1.18,9.28-1.97c6.22-1.61,12.28-3.8,18.21-6.27s11.76-5.22,17.54-8.04c4.95-2.41,10.84-4.58,14.14-9.25,2.81-3.97,2.62-10.75-2.2-13.12-1.73-.85-3.25,1.74-1.51,2.59h0Z"/>
    </g>
    <g class="st1">
      <path d="M400.73,208.28c3.17,13.08,4.71,26.5,4.61,39.96l2.26-1.3c-2.3-1.76-4.61-3.53-6.91-5.29-2.02-1.55-4.06-3.53-6.51-4.38-1.99-.69-4.19-.16-5.44,1.59-1.1,1.55-1.25,3.61-1.13,5.45.62,9.53,3.36,18.85,3.16,28.45-.11,5.13-1.24,10.11-4.06,14.44l1.69-.69c-3.43-1.17-6.87-2.34-10.3-3.5s-6.58-2.49-9.94-3.34c-2.67-.68-5.6-.14-6.47,2.83-.39,1.35-.34,2.87-.39,4.26-.06,1.78-.09,3.56-.13,5.33-.22,11.41-1.01,25.32-12.09,31.79-2.21,1.29-4.7,2.04-7.27,2.02-3.25-.02-6.38-1.2-9.63-1.24-5.51-.08-9.54,3.59-11.55,8.48-2.36,5.73-1.42,11.79-1.07,17.79.19,3.18.16,6.37-.72,9.46-.72,2.52-1.94,4.87-3.47,6.99-7.33,10.17-20.35,13.15-32.18,13.63-5.33.21-10.66-.05-15.97.68-4.51.62-9.15,1.91-12.59,5.03-4.01,3.63-4.86,8.88-4.53,14.04.34,5.45,1.77,11.76-2.19,16.3-3.85,4.41-10.32,6.49-15.77,8.06-6.16,1.78-12.52,2.69-18.92,2.93s-12.95-.15-19.35-1c-3.26-.43-6.51-.99-9.74-1.64-2.92-.58-5.82-1.34-8.79-1.66-2.68-.29-5.51-.13-7.93,1.15-2.3,1.21-3.93,3.4-4.59,5.89-1.48,5.53,1.07,10.8,3.62,15.55,1.43,2.67,2.79,5.33,3.35,8.33.35,1.9,3.24,1.09,2.89-.8-1.08-5.86-5.31-10.41-6.79-16.1-.62-2.37-.82-5.12.25-7.4s3.35-3.49,5.81-3.71c2.81-.25,5.61.4,8.33,1,3.05.66,6.12,1.25,9.2,1.75,6.31,1.01,12.69,1.65,19.08,1.7s12.65-.48,18.84-1.74,11.96-3.06,17.25-6.02c2.43-1.36,4.68-3.09,6.33-5.36s2.35-4.77,2.58-7.45c.49-5.52-1.54-11.24.02-16.67,2.74-9.51,15.43-9.74,23.42-9.79,11.96-.07,24.63-1.03,34.48-8.57,4.23-3.24,7.68-7.44,9.62-12.44,2.36-6.1,1.31-12.46,1-18.8-.25-4.99.31-10.66,4.12-14.35,4.59-4.45,10.87-.83,16.33-1.05,11.34-.46,18.53-11.59,20.46-21.7,1.24-6.51,1.08-13.15,1.28-19.74.04-1.32-.12-2.89.3-4.16.46-1.38,2.06-.94,3.13-.63,3.39.98,6.72,2.27,10.05,3.41s6.55,2.23,9.83,3.35c.65.22,1.35-.15,1.69-.69,4.82-7.42,4.96-16.37,3.96-24.88-.52-4.43-1.3-8.82-1.93-13.24-.3-2.14-.61-4.3-.73-6.45-.07-1.29-.17-3.83,1.51-4.17,1.13-.23,2.36.7,3.22,1.32,1.17.84,2.3,1.75,3.45,2.63,2.43,1.86,4.87,3.73,7.3,5.59.94.72,2.25-.27,2.26-1.3.1-13.72-1.49-27.42-4.72-40.76-.45-1.88-3.35-1.08-2.89.8h0Z"/>
    </g>
    <g class="st1">
      <path d="M264.04,426.34c11.37,7.1,23.77,12.49,36.72,15.98,1.11.3,2.14-.74,1.85-1.85-2.82-10.76-8.17-20.72-15.54-29.04l-1.46,2.51c18.59,4.8,37.19,9.61,55.78,14.41,3.42.88,6.93,1.97,10.5,1.36,3.24-.55,5.71-3.1,5.53-6.51-.19-3.62-2.64-7.04-4.75-9.85s-4.48-5.39-6.9-7.93c-5.26-5.53-11.01-11.12-13.41-18.56l-1.85,1.85c19.94,5.02,39.88,10.04,59.82,15.05,3.35.84,7.21,1.63,10.48.09,3.78-1.78,4.43-6.06,3.6-9.77-1.54-6.92-6.26-12.74-10.62-18.12-4.9-6.03-10.23-12.26-11.39-20.21l-1.85,1.85c7.2,3.02,14.4,6.04,21.6,9.05,3.6,1.51,7.2,3.02,10.8,4.53,2.92,1.22,6.29,3.23,9.58,2.93,2.79-.26,4.79-2.58,4.62-5.37-.18-3.01-2.06-5.51-3.82-7.81-4.66-6.1-9.32-12.2-13.98-18.29-5.31-6.95-10.63-13.9-15.94-20.85l-2.36,1.82c10.89,9.16,22.34,17.64,34.29,25.36.79.51,2,.02,2.2-.9.94-4.26-1.37-7.96-3.89-11.19-3.09-3.95-6.27-7.83-9.41-11.75-6.29-7.85-12.58-15.7-18.88-23.55l-2.12,2.12c12.76,12.97,26.73,24.72,41.69,35.08.53.36,1.39.22,1.82-.23,2.48-2.66.88-6.23-1.05-8.7-2.72-3.49-5.81-6.75-8.71-10.09-5.97-6.89-11.95-13.78-17.92-20.68-3.37-3.88-6.73-7.77-10.1-11.65-1.1-1.27-3.39.45-2.36,1.82,7.05,9.26,15.62,17.21,25.43,23.48,1.29.83,2.78-.79,2.05-2.05-7.2-12.57-17.99-22.96-30.85-29.65-1.07-.56-2.15.15-2.26,1.3-1.07,11.5.18,23.22,3.71,34.22,1.72,5.37,4.46,10.65,4.89,16.34.31,4.07-.83,8.85-4.33,11.34-4.31,3.06-10.58,1.07-15.15-.35-5.01-1.55-9.79-3.71-14.54-5.92s-9.59-4.53-14.55-6.38c-2.44-.91-4.92-1.72-7.45-2.34s-5.43-1.24-7.97-.08c-3.66,1.69-4.39,5.96-3.94,9.58.26,2.18.86,4.23,1.59,6.29,1.02,2.89,2.05,5.78,3.07,8.67,2.07,5.86,4.15,11.72,6.22,17.58,1.02,2.89,2.05,5.78,3.07,8.67.96,2.71,2.06,5.52,2.17,8.43.2,4.94-3.28,8.7-7.71,10.38-5.45,2.07-11.57,1.11-17.2.49-6.06-.66-12.12-1.33-18.19-1.99s-11.71-1.41-17.58-1.9c-4.81-.4-10.08-.22-14.01,2.94-3.56,2.86-4.86,7.4-5.23,11.78-.44,5.27.15,10.71.81,15.93.74,5.83,1.85,11.6,3.38,17.28.76,2.81,1.62,5.59,2.57,8.34.63,1.81,3.52,1.03,2.89-.8-3.85-11.18-6.14-22.87-6.69-34.68-.2-4.36-.28-9.27,2.07-13.13,2.59-4.27,7.64-4.97,12.22-4.78,5.71.24,11.43,1.14,17.11,1.76,6.14.67,12.29,1.35,18.43,2.02,5.8.64,11.78,1.62,17.57.41,4.4-.92,8.74-3.47,11.01-7.45,2.84-4.99,1.13-10.55-.64-15.58-2.07-5.86-4.15-11.72-6.22-17.58s-4.15-11.72-6.22-17.58c-1.12-3.16-2.81-7.93-.77-11.06,1.32-2.02,3.87-1.81,5.95-1.37,2.55.54,5.06,1.29,7.51,2.16,4.95,1.75,9.7,4.01,14.45,6.23,4.79,2.23,9.61,4.45,14.62,6.13s10.62,3.4,15.68,1.97c4.3-1.21,7.17-4.91,8.37-9.08,1.41-4.93.35-10.02-1.26-14.75-1.87-5.5-3.96-10.84-5.2-16.53s-1.86-11.47-1.88-17.28c-.01-2.78.12-5.55.38-8.32l-2.26,1.3c12.42,6.47,22.81,16.42,29.77,28.58l2.05-2.05c-9.35-5.98-17.64-13.57-24.36-22.41l-2.36,1.82c10.92,12.59,21.83,25.19,32.75,37.78,1.39,1.61,2.97,3.17,4.18,4.93.73,1.06,1.96,2.99.86,4.17l1.82-.23c-14.75-10.21-28.51-21.81-41.09-34.61-1.39-1.41-3.3.65-2.12,2.12,5.88,7.33,11.75,14.66,17.63,21.99,2.91,3.63,5.82,7.27,8.74,10.9,2.32,2.89,5.94,6.61,5.04,10.67l2.2-.9c-11.74-7.58-22.99-15.89-33.68-24.89-1.19-1.01-3.47.37-2.36,1.82,8.72,11.41,17.44,22.82,26.16,34.23,1.14,1.49,11.07,12.57,5.5,13.58-1.21.22-2.54-.28-3.66-.7-1.71-.65-3.39-1.41-5.08-2.12-3.29-1.38-6.59-2.76-9.88-4.14-7.51-3.15-15.01-6.29-22.52-9.44-1.19-.5-1.99.88-1.85,1.85,1.99,13.7,14.93,21.81,20.46,33.81,1.26,2.74,3.13,7.38.7,9.98-2.18,2.33-6.38,1.32-9.05.66-9.5-2.35-18.97-4.77-28.46-7.16-10.61-2.67-21.23-5.34-31.84-8.01-1.06-.27-2.21.72-1.85,1.85,4.14,12.82,16.62,19.82,23.2,31.08,1.45,2.48,3.2,6.76-.7,7.89-3.11.9-6.55-.33-9.54-1.11-8.77-2.27-17.55-4.53-26.32-6.8-9.9-2.56-19.8-5.12-29.7-7.67-1.5-.39-2.43,1.41-1.46,2.51,7.03,7.94,12.08,17.46,14.77,27.71l1.85-1.85c-12.71-3.42-24.84-8.7-36-15.67-1.64-1.03-3.15,1.57-1.51,2.59h0Z"/>
    </g>
    <g class="st1">
      <path d="M432.27,421.45c1.28,3.58,5.54,5.54,8.92,3.39,1.48-.94,2.56-2.47,2.83-4.22.36-2.38-.69-4.68-1.48-6.87-.83-2.31-1.65-4.63-2.48-6.94-.35-.97-1.01-2.16-1.13-3.19,0-.03-.57-.24.22,0,.37.11.69.28,1.01.47,4.35,2.6,8.54,5.49,12.8,8.22,2.53,1.63,7.64,3.36,8.84-.77.54-1.86-2.36-2.65-2.89-.8-.56,1.95-6.43-2.3-6.95-2.64-1.82-1.17-3.64-2.34-5.46-3.51s-3.48-2.47-5.34-3.39c-1.18-.59-2.73-1-3.96-.29-1.77,1.01-1.34,3.01-.78,4.59,1.44,4.04,3.09,8.07,4.32,12.18.53,1.78.5,3.77-1.36,4.71-1.62.83-3.61-.07-4.22-1.76-.65-1.8-3.55-1.03-2.89.8h0Z"/>
    </g>
    <g class="st1">
      <path d="M403.67,309.18l2.31-3.93-2.36.3c11.93,11.82,15.44,28.99,18.68,44.83,1.9,9.27,3.96,18.49,6.59,27.59,2.77,9.59,6.05,19.03,9.8,28.28,2.1,5.18,4.34,10.3,6.73,15.35,1.74,3.67,4.72,8.02,9.37,7.05,1.89-.39,1.09-3.28-.8-2.89-1.76.37-3.2-1.13-4.15-2.43-1.23-1.7-2.05-3.68-2.93-5.57-2.04-4.41-3.97-8.87-5.78-13.39-3.63-9.05-6.79-18.28-9.49-27.64-2.54-8.82-4.54-17.76-6.38-26.75-1.63-7.98-3.29-16-5.96-23.7-2.93-8.46-7.16-16.48-13.57-22.83-.69-.68-1.87-.53-2.36.3l-2.31,3.93c-.98,1.67,1.61,3.18,2.59,1.51h0Z"/>
    </g>
    <g class="st1">
      <path d="M434.08,376.85c10.73,17.81,23.33,37.54,44.57,43.52,6.53,1.84,13.49,2.56,19.51,5.88l-.3-2.36c-16.58,17.04-37.99,29.11-61.09,34.68-6.51,1.57-13.13,2.6-19.8,3.1-1.91.14-1.93,3.14,0,3,24.27-1.79,47.92-10.59,67.47-25.09,5.53-4.1,10.74-8.63,15.54-13.56.66-.68.56-1.88-.3-2.36-5.24-2.89-11.12-3.96-16.88-5.32-5.31-1.26-10.31-3.1-14.96-5.98-8.76-5.43-15.61-13.46-21.46-21.83-3.44-4.92-6.59-10.04-9.69-15.19-1-1.65-3.59-.15-2.59,1.51h0Z"/>
    </g>
    <g class="st1">
      <path d="M71.23,418.97c3.9,12.09,9.1,23.76,15.49,34.74,3.16,5.43,6.62,10.7,10.35,15.76s7.74,10.2,12.16,14.76c3.65,3.77,9.25,8.03,14.85,6.29s6.97-7.36,7.74-12.32c.61-3.97,1.35-10.92,6.32-11.86,3.17-.6,6.36,1.88,9.03,3.24,2.86,1.47,5.81,2.77,8.81,3.93,13.7,5.3,28.69,7.23,43.29,5.59,1.9-.21,1.92-3.22,0-3-12.76,1.43-25.71.12-37.92-3.86-3.09-1.01-6.13-2.18-9.09-3.53s-5.63-3.01-8.54-4.3c-2.64-1.17-5.52-1.65-8.2-.32-2.12,1.05-3.62,3.09-4.57,5.2-2.06,4.56-1.55,9.77-3.58,14.31-1.01,2.26-2.86,4.1-5.44,4.27-2.78.19-5.47-1.41-7.59-3.05-2.28-1.78-4.18-3.98-6.08-6.15-2.06-2.37-4.07-4.8-6-7.28-3.78-4.86-7.3-9.93-10.54-15.17-7.38-11.93-13.31-24.72-17.62-38.06-.59-1.83-3.49-1.05-2.89.8h0Z"/>
    </g>
    <g class="st1">
      <path d="M390.74,107.17h-6.49c-1.67-.01-2.07,2.53-.4,2.94,1.9.46,2.93,2.15,3.63,3.86.97,2.37,1.5,4.96,2.13,7.44,1.43,5.58,2.69,11.21,3.78,16.87,2.2,11.43,3.69,22.98,4.47,34.59.44,6.55.65,13.11.64,19.68,0,1.93,3,1.93,3,0,.03-24.47-3.04-48.94-9.17-72.63-1.17-4.52-2.27-11.38-7.68-12.69l-.4,2.95h6.49c1.93.01,1.93-2.99,0-2.99h0Z"/>
    </g>
    <g class="st1">
      <path d="M394.86,252.37c-4.33,14.04-8.79,28.05-13.54,41.95s-9.83,27.76-15.36,41.41c-5.51,13.59-11.48,26.99-18.08,40.09-6.52,12.94-13.64,25.57-21.51,37.74-7.91,12.23-16.57,23.97-26.06,35.01-1.2,1.39-2.41,2.77-3.63,4.14s.83,3.57,2.12,2.12c9.73-10.91,18.65-22.53,26.8-34.67,8.19-12.19,15.6-24.9,22.37-37.94,6.77-13.05,12.89-26.42,18.54-39.99,5.71-13.72,10.93-27.64,15.83-41.67,4.87-13.95,9.41-28.02,13.8-42.13.55-1.76,1.09-3.51,1.63-5.27.57-1.85-2.33-2.64-2.89-.8h0Z"/>
    </g>
    <g class="st1">
      <path d="M396.58,306.48l3.53-2.08-2.05-2.05c-4.88,8.49-9.89,16.92-14.52,25.55-4.35,8.12-8.31,16.58-10.61,25.53-2.14,8.33-3.31,18.04-.46,26.35,2.84,8.27,10.06,12.81,17.67,16.21,10.11,4.52,20.64,8.03,31.44,10.49,1.88.43,2.68-2.46.8-2.89-9.22-2.1-18.26-4.95-26.99-8.58-7.22-3-15.48-6.46-19.13-13.88-1.84-3.73-2.35-8.01-2.36-12.13-.01-4.41.54-8.79,1.53-13.08,1.98-8.61,5.6-16.73,9.68-24.53,4.89-9.34,10.32-18.4,15.57-27.54.74-1.29-.75-2.82-2.05-2.05l-3.53,2.08c-1.66.98-.15,3.57,1.51,2.59h0Z"/>
    </g>
    <g class="st1">
      <path d="M426.25,385.17c.2.2.03.78.03.78.09.24.42.51.55.75.48.83.85,1.73,1.25,2.59.77,1.65,1.53,3.31,2.31,4.96,1.58,3.36,3.22,6.69,5.16,9.85,3.56,5.8,8.28,11.08,14.44,14.16,3.34,1.67,6.98,2.62,10.72,2.58l-1.06-2.56c-11.19,10.43-23.39,19.74-36.39,27.81s-26.88,14.95-41.25,20.37c-8.07,3.04-16.3,5.64-24.65,7.79-1.87.48-1.08,3.37.8,2.89,15.06-3.87,29.73-9.23,43.75-15.94,13.97-6.69,27.29-14.73,39.71-23.99,7.01-5.23,13.74-10.84,20.14-16.8.96-.89.21-2.57-1.06-2.56-7.6.08-14.29-4.48-18.98-10.15-5.36-6.47-8.33-14.44-11.99-21.89-.81-1.66-2.37-3.49-4.43-2.74-1.75.64-2.54,2.82-1.18,4.22s3.46-.73,2.12-2.12h0Z"/>
    </g>
    <g class="st1">
      <path d="M140.25,482.96c6.5,7.87,16.96,10.65,26.75,11.27,6.16.39,12.33.05,18.49.15s11.68.69,17.41,1.85c6.45,1.31,12.77,3.27,18.82,5.87,1.14.49,2.58-.32,2.2-1.69-1.32-4.75-2.63-9.51-3.95-14.26-.66-2.38-1.32-4.75-1.97-7.13-.51-1.85-1.29-3.8-1.29-5.74,0-.51.01-1.22.37-1.64.61-.72,1.77-.28,2.52-.05,1.82.57,3.5,1.53,5.07,2.6,3.32,2.28,6.14,5.18,9.34,7.6,5.72,4.33,14.65,7.19,20.35,1.25,4.75-4.95,4.66-12.93,10.38-17.14,6.05-4.45,14.3-3.86,21.2-2.23,8.2,1.93,16.41,5.26,24.98,4.13,6.79-.9,13.18-4.36,15.75-10.99,1.22-3.15,1.81-7.46,5.88-7.97,3.86-.48,8.03,1.26,11.35,3.03,6.68,3.55,12.4,8.93,19.66,11.38,5.8,1.95,13.16,2.43,18.3-1.45,1.27-.96,2.32-2.12,3.18-3.47,1.04-1.63-1.55-3.14-2.59-1.51-3.57,5.59-11.11,5.56-16.82,3.94-7.35-2.1-13.1-7.57-19.69-11.19-6.14-3.37-16.6-6.94-20.34,1.44-1.41,3.16-1.94,6.53-4.46,9.09-2.35,2.38-5.53,3.75-8.77,4.44-8.4,1.8-16.7-1.55-24.74-3.54-7.33-1.81-15.42-2.55-22.36,1.06-3.11,1.62-5.57,4.15-7.19,7.25s-2.47,6.36-4.17,9.31c-1.8,3.12-4.65,5.01-8.34,4.83-3.94-.19-7.68-2.33-10.68-4.75s-5.99-5.36-9.37-7.54c-2.7-1.74-7.77-4.59-10.56-1.65-2.56,2.69-.67,7.31.16,10.3,1.32,4.75,2.63,9.51,3.95,14.26.66,2.38,1.32,4.75,1.97,7.13l2.2-1.69c-10.54-4.54-21.77-7.28-33.23-7.97s-23.06,1.14-34.13-2.19c-5.21-1.57-10.01-4.28-13.51-8.51-1.23-1.49-3.34.64-2.12,2.12h0Z"/>
    </g>
    <g class="st1">
      <path d="M416.12,458.55c11.53,1.51,23.14,2.29,34.76,2.35,1.93,0,1.93-2.99,0-3-11.62-.05-23.23-.84-34.76-2.35-.81-.11-1.49.77-1.5,1.5,0,.9.7,1.4,1.5,1.5h0Z"/>
    </g>
  </g>
  <g id="_レイヤー_2" data-name="レイヤー_2">
    <path d="M416.26,322.99c1.68,15.23,6.89,29.91,15.06,42.87,8.09,12.85,18.88,23.92,31.39,32.49,7.08,4.85,14.71,8.83,22.7,11.93,1.8.7,2.58-2.2.8-2.89-13.69-5.31-26.25-13.48-36.72-23.76-10.44-10.25-18.88-22.64-24.2-36.29-3.05-7.81-5.11-16.01-6.03-24.35-.21-1.9-3.21-1.92-3,0h0Z"/>
    <path d="M129.24,485.9c12.78,3.34,24.72-2.93,35.06-9.87s20.95-14.28,33.56-16.77,26.45.27,38.48,5.64c5.97,2.66,11.72,5.74,17.94,7.82s12.49,3.13,18.9,2.56c23.94-2.13,40.74-21.48,60.71-32.47,11.66-6.41,25.16-9.49,38.43-8.02,12.73,1.41,23.85,8.52,35.93,12.21,25.07,7.65,50.22-6.55,68.74-22.44,2.55-2.19,5.03-4.46,7.42-6.83,1.38-1.36-.75-3.48-2.12-2.12-9.05,8.94-19.32,16.94-30.67,22.76-10.97,5.63-23.55,9.21-35.94,7.28s-23.56-9.24-35.8-12.45c-12.57-3.3-26.27-1.86-38.32,2.76-21.79,8.36-37.35,28.21-60.01,34.69-6.14,1.75-12.51,2.3-18.83,1.17s-12.23-3.55-17.99-6.25-11.94-5.67-18.33-7.54-12.45-2.8-18.81-2.73-12.93,1.23-19.02,3.49c-5.74,2.13-11.13,5.06-16.29,8.32-10.24,6.47-20.42,15.48-32.99,16.66-3.13.29-6.22.04-9.26-.75-1.87-.49-2.67,2.41-.8,2.89h0Z"/>
    <path d="M416.35,322.13v.85c0,.21.04.4.13.58.06.19.16.35.31.48.14.15.3.25.48.31.18.09.37.14.58.13l.4-.05c.25-.07.47-.2.66-.39l.23-.3c.14-.23.2-.49.2-.76v-.85c0-.21-.04-.4-.13-.58-.06-.19-.16-.35-.31-.48-.14-.15-.3-.25-.48-.31-.18-.09-.37-.14-.58-.13l-.4.05c-.25.07-.47.2-.66.39l-.23.3c-.14.23-.2.49-.2.76h0Z"/>
    <path d="M51.53,119.57c-10.16,24.71-17.35,50.6-21.56,76.97s-5.47,52.94-3.84,79.46c1.64,26.65,6.19,53.15,13.64,78.79s17.48,49.94,30.52,72.83c12.21,21.43,28.02,42.19,50,54.3,2.61,1.44,5.3,2.74,8.05,3.9.75.32,1.6.22,2.05-.54.37-.63.21-1.74-.54-2.05-22.99-9.73-39.88-29.15-52.74-49.98-13.6-22.04-24.05-46.18-31.89-70.83s-13.19-51.29-15.45-77.63c-2.25-26.2-1.67-52.65,1.81-78.72,3.49-26.19,9.94-52.01,19.29-76.73,1.14-3.01,2.32-6,3.55-8.98.73-1.78-2.17-2.56-2.89-.8h0Z"/>
    <path d="M54.43,120.36c9.28-22.38,24.72-41.9,43.35-57.26s42.35-27.44,66.49-34.26c26.62-7.51,54.54-9.55,82.08-7.78,26.89,1.73,53.93,6.28,79.1,16.17,22.02,8.65,42.71,22.07,57.25,40.99,1.94,2.53,3.76,5.15,5.46,7.85,1.03,1.63,3.63.12,2.59-1.51-13.12-20.78-33.19-36.16-55.34-46.33-24.75-11.36-51.84-16.84-78.83-19.36s-56.47-1.71-83.96,4.72c-25.07,5.87-49.14,16.46-69.85,31.83s-36.59,33.66-47.5,55.84c-1.34,2.72-2.57,5.49-3.74,8.29-.74,1.78,2.16,2.56,2.89.8h0Z"/>
    <path d="M388.16,86.08c3.7,5.24,6.37,11.17,8.63,17.14,2.85,7.55,5.07,15.34,6.97,23.18,4.15,17.17,6.8,34.74,8.25,52.34.65,7.88,1.05,15.78,1.02,23.68-.05,10.56-.53,21.11-.61,31.67-.13,18.8.24,37.61,1.34,56.38.75,12.83,1.86,25.63,3.33,38.39.14,1.23.29,2.46.43,3.68.23,1.89,3.23,1.92,3,0-1.46-12.26-2.63-24.55-3.44-36.87-1.19-18.03-1.68-36.11-1.69-54.18,0-19.13,1.28-38.27.01-57.38-1.17-17.71-3.63-35.4-7.43-52.74-1.79-8.14-3.89-16.22-6.56-24.11-2.23-6.59-4.83-13.15-8.37-19.15-.72-1.21-1.48-2.4-2.29-3.55-1.11-1.56-3.71-.07-2.59,1.51h0Z"/>
    <path d="M303.88,166.12c-3.24,2.36-6.42,4.94-9.9,6.95-2.95,1.7-6.7,2.95-9.8.91-2.31-1.52-3.62-4.41-3.47-7.14.17-3.09,2.41-5.65,5.08-7.01,5.96-3.02,13.67,1.05,15.63,7.21.61,1.92.12,3.43-1.35,4.78-1.29,1.18-2.9,2.03-4.59,2.49-3.18.86-6.54.1-8.8-2.36-5.29-5.75,1.53-12.75,6.95-14.93,3.35-1.34,7.31-1.7,10.39.49,2.9,2.06,3.54,5.37,2.07,8.53s-3.8,6.45-6.59,8.38c-2.56,1.77-5.88,2.07-8.74.82s-4.7-3.9-5.01-6.96c-.33-3.35,1.13-6.41,3.86-8.36,4.3-3.07,11.53-4.38,15.95-.78,5.37,4.38.9,12.15-3.86,14.89s-11.37,2.6-14.94-2.01c-3.17-4.09-3.45-10.59.6-14.19,2.73-2.43,7-3.89,10.62-3.81,2.83.06,5.33,1.44,7.17,3.54,3.47,3.95,4.13,10.28.1,14.07-3.55,3.33-9.65,3.98-13.7,1.2-2.31-1.58-4.44-5.06-2.82-7.8s5.64-4.14,8.71-3.99,5.87,2.2,6.67,5.29c.75,2.89-.85,5.61-3.69,6.49-3.01.94-6.05-.47-7.73-3.06-1.34-2.07-2.61-6.78,1.05-7.21,2.81-.33,7.11.75,8.39,3.56.5,1.1.59,2.57-.07,3.63-.87,1.4-2.8,1.4-4.23,1.03-1.27-.32-2.88-1.13-3.07-2.59-.22-1.7,1.09-2.26,2.5-1.7,1.28.51,2.43,1.55,3.05,2.79.48.96.63,2.31-.64,2.71-1.14.35-2.43-.44-3-1.39-.85-1.42-.77-3.26-.52-4.84l-2.2.9c.98.75,1.75,1.74,2.29,2.84.25.52.44,1.07.58,1.64.05.23.06.53.14.74-.07.49.24.66.93.52,1.17-.04,1.29.42.38,1.4l-1.16.15.15.03c1.89.31,2.7-2.58.8-2.89-1.68-.28-2.82,1.35-1.93,2.85s2.88,1.03,3.55-.39c.72-1.54.03-3.58-.61-5.03-.8-1.81-2.05-3.25-3.61-4.44-.72-.55-2.06,0-2.2.9-.64,4.04.19,9.29,5.07,10.02,1.92.29,3.88-.49,4.83-2.25s.51-3.67-.42-5.25c-1.87-3.19-7.54-6.48-10.19-2.34s1.13,7.92,5.01,8.64c2.2.41,4.68.17,6.32-1.52,1.32-1.36,1.79-3.33,1.57-5.17-.54-4.44-4.71-6.78-8.78-7.38-2.25-.33-4.86-.38-6.62,1.31-1.43,1.38-1.88,3.49-1.68,5.41.44,4.14,3.33,7.97,7.33,9.27s8.55-.36,10.57-3.92.83-8.17-2.01-10.93c-3.2-3.11-8.17-3.49-12.19-1.91s-7.72,5.09-6.7,9.91c1.68,7.95,11.37,10.29,18,7.47,3.29-1.4,5.95-4.02,7.09-7.44s.5-7.5-1.26-10.71-4.7-5.77-8.22-6.73c-4.6-1.25-10.12.35-14,2.93-3.3,2.19-5.27,5.48-5.6,9.43-.31,3.62.88,7.37,3.13,10.2,5.06,6.4,14.59,6,20.65,1.3,3.36-2.61,5.82-6.74,5.79-11.09-.03-3.95-2.4-7.29-5.96-8.88-7.06-3.14-17.88-.44-21.21,6.97-1.72,3.83-1.37,8.58,1.15,11.99s6.72,5.09,10.83,4.64c4.73-.52,7.95-3.87,10.58-7.57s4.91-8.32,2.54-12.8c-2.12-4.01-6.79-5.97-11.18-5.59-4.62.41-9.27,2.73-12.38,6.18-2.88,3.2-4.49,7.64-2.76,11.8s5.69,6.55,9.96,6.7,9.86-2.25,11.68-6.42-1.54-9.34-4.78-11.99-7.66-4.1-11.93-3.17-7.68,3.8-9.16,7.73c-1.4,3.7-.32,7.99,2.22,10.92,3.01,3.47,7.76,4.02,11.9,2.4,4.77-1.86,8.85-5.44,12.95-8.42,1.55-1.12.05-3.73-1.51-2.59h0Z"/>
    <path d="M159.62,166.85c-1.33,7.18-7.54,12.45-14.9,12.25-6.32-.17-13.83-5.44-12.19-12.57,1.55-6.75,9.98-10.92,16.43-10.43,3.29.25,6.8,2.16,7.83,5.47,1.17,3.74-1.06,7.65-3.23,10.55-1.04,1.39-2.31,2.88-3.99,3.46-1.9.66-3.99-.01-5.73-.85-3.07-1.47-6.15-3.67-7.7-6.79s-.62-6.7,1.74-9.16c2.65-2.76,6.58-3.73,10.3-3.75s7.55.85,9.86,3.97c1.9,2.58,2.47,6.02,1.2,9s-4.12,5.25-7.37,5.66c-3.61.45-7.2-1.11-10.07-3.17-2.72-1.95-5.64-4.93-5.54-8.52.09-3.22,2.8-5.81,5.58-7.02,5.84-2.54,13.88.4,15.72,6.75.84,2.89.44,6.18-1.3,8.68s-4.44,3.5-7.28,3.38-5.73-1.67-6.79-4.42c-1.5-3.88,2.9-6.81,6.07-7.83,2.85-.92,7.64-1.28,9.75,1.38,1.61,2.03,1.01,5.22-.54,7.1-2.18,2.65-6.12,2.69-9.13,1.7-1.56-.51-3.35-1.37-4.42-2.66s-.79-2.8.02-4.1c1.78-2.85,5.55-4.21,8.8-3.84,3.01.35,5.78,2.82,5.29,6.07-.53,3.47-4.88,3.63-7.52,2.87-3.2-.93-6.15-3.49-6.23-7.02-.07-3.05,2.19-5.79,5.42-5.25s3.69,4.7,1.82,6.99c-2.01,2.45-6.59,3.42-9.45,2.03-3.13-1.53-.65-5.46,1.57-6.48,2.48-1.13,6.35-.64,7.36,2.25.7,2-.38,5.58-3.07,4.91-1.09-.27-2.26-1.3-2.41-2.46-.2-1.53,1.55-2.42,2.82-2.59,2.8-.38,6.16,2.03,4.99,5.09-.43,1.12-1.48,2.16-2.76,1.91s-2.34-1.58-1.96-2.88c.55-1.85-2.34-2.65-2.89-.8-1.3,4.38,3.91,8.28,7.8,6s3.85-7.98.4-10.66-9.71-2.36-11.2,2.27c-1.26,3.9,3,7.84,6.79,7.09,4.04-.79,5.6-5.75,4.16-9.23-1.72-4.17-6.97-5.36-10.88-3.79-3.67,1.47-6.82,6.29-4.35,10.08s9.13,3.33,12.7,1.36c3.89-2.14,6.11-7.55,3.31-11.45-2.51-3.49-7.98-3.49-10.9-.51-3.31,3.39-2.78,8.92.16,12.34s8.23,5.17,12.49,3.76c4.5-1.49,5.99-6.37,3.82-10.42-2.32-4.34-7.79-5.25-12.17-3.94-3.96,1.19-8.38,4.95-7.57,9.55s7.11,7.01,11.28,7.12c4.47.12,8.58-2.31,9.94-6.67,1.28-4.11-.43-8.35-4.51-9.93-4.5-1.75-10.09-.68-13.92,2.12-1.97,1.44-3.79,3.38-4.15,5.89s.68,4.87,2.3,6.66c2.7,2.98,7.13,3.95,10.96,3.09,4.15-.94,7.26-4.24,8.33-8.31s.1-8.84-2.77-12.14-7.68-5.16-12.13-4.93-8.91,2.53-11.13,6.49c-2.43,4.36-.86,9.11,2.36,12.56s8.12,6.29,13.06,6.57c4.67.27,9.11-2.18,11.43-6.24s2.03-8.92-.51-12.69c-2.91-4.32-7.85-5.83-12.86-5.75s-10.2,1.78-13.31,5.94c-2.88,3.85-3.02,8.93-.27,12.89s7.42,7.11,12.03,7.84c5.48.87,9.21-3.61,11.6-7.96s3.08-9.91-.65-13.88-9.08-4.41-13.93-3.23c-8.65,2.11-17.43,10.57-12.86,19.98s17.11,10.87,24.83,5.2c3.67-2.69,6.26-6.7,7.09-11.19.35-1.89-2.54-2.7-2.89-.8h0Z"/>
  </g>
  <g id="_レイヤー_3" data-name="レイヤー_3">
    <path class="st3" d="M166.11,240.18c-18.03,5.92-31.37,23.44-42.56,38.02-5.38,7.01-10.46,14.57-13.08,23.11s-1.46,20.3,7.22,25.47c14.06,8.38,30.18-6.42,40.19-14.89,1.81-1.54,3.86-4.02,6.01-5.07l-1.6,1.24.36-.26c.52.15,4.03-2.76,4.56-3.12,2.56-1.71,5.15-3.38,7.75-5.02,10.46-6.58,21.26-12.58,32.12-18.47,6.26-3.39,12.54-6.79,19.09-9.59-2.09.89,1.54-.6,1.58-.61,1.1-.42,2.21-.83,3.32-1.21,1.77-.6,3.55-1.14,5.37-1.57,1-.24,2.01-.45,3.03-.6-2.2.33-.38.54.52.12,1.53-.71.19.44-.73-.23.5.09.98.21,1.46.37-1.14-.28-2.1-.86-2.89-1.74l-1.88-14.54c-5.88,12.91-18.69,20.99-28.9,30.9-5.62,5.46-11.14,11.08-16.55,16.74s-13.74,13.03-14.93,21.52c-1.12,8.02,5.03,14.6,13.03,14.67,3.99.03,8.14-1.83,11.53-3.77,13.63-7.8,26.05-17.88,39.44-26.12,4.22-2.59,8.49-5.11,12.84-7.47,1.89-1.02,3.8-2.02,5.73-2.96.91-.45,1.83-.88,2.75-1.31.51-.23,1.02-.46,1.53-.69,1.47-.67-2.77,1.01-.26.11,1.62-.58,3.2-1.23,4.84-1.72.73-.22,1.47-.42,2.22-.59.4-.09.81-.15,1.2-.25,2.05-.56-1.02.82-1.22.14-.13-.45,6.31,1.15.62-.26,2.12.52-1.48-.73-1.19-.56,1.11.65-2.44-2.1-1.52-1.21.41.39.91,1.19-.32-.5-.67-.91-1.71-3.86-1.69-4.75,0,.36.53-3.31.24-2.09-.43,1.8.27-.67.54-1.08-1.17,1.75-2.13,3.62-3.35,5.36-.75,1.07.47-.58.52-.64-.49.63-.99,1.25-1.5,1.87-.97,1.18-1.97,2.35-2.98,3.5-1.92,2.19-3.89,4.33-5.89,6.45-7.11,7.55-15.38,14.57-21.32,23.13-3,4.32-1.68,10.99,1.88,14.54,3.9,3.9,9.77,4.33,14.54,1.88,4.25-2.18,9.04-6.69,11.5-10.86,7.86-13.33-12.88-25.42-20.72-12.11.37-.63,1.98-2.05.61-.82-.66.6-1.29,1.26-1.93,1.88-.19.18-1.8,1.84-.84.81.81-.87-.35.18-.72.37,5.47,5.47,10.95,10.95,16.42,16.42,1.01-1.45-2.31,2.48-.83,1.05.34-.33.61-.74.93-1.09.89-.97,1.77-1.94,2.67-2.9,2.37-2.52,4.8-4.98,7.22-7.46,5.29-5.43,10.6-10.87,15.49-16.67,4.33-5.14,9.43-10.95,11.02-17.7,1.99-8.44-3.04-16.93-11.24-19.57-11.55-3.71-24.59,3.05-34.57,8.24-12.36,6.43-24.06,14.15-35.59,21.95-5.04,3.41-10.02,6.89-15.07,10.28-1.44.97-2.89,1.93-4.38,2.83-.47.28-2.85,1.15-.95.53s0-.04-.34.03c-1.14.25,4.55.15,4.39.08l5.3,3.09c2.64,2.82,3.64,5.86,3.01,9.12-.04,1.27-.41,2.45-1.12,3.53-.04-.02.48-.92.53-.98.89-1.09,2.28-2.99.4-.77,1.96-2.32,3.91-4.61,5.98-6.83,4.25-4.56,8.68-8.95,13.09-13.35,13.13-13.08,30.76-24.53,38.64-41.82,2.01-4.41,2.51-11.09-1.88-14.54-13.6-10.71-31.31-2.81-45.07,3.68-15.29,7.2-30.16,15.75-44.52,24.62-7.25,4.48-14.44,9.07-20.95,14.59-2,1.69-3.98,3.41-6,5.07-.52.43-3.91,3.12-2.05,1.7-1.38,1.06-2.78,2.08-4.23,3.05-1.09.73-2.2,1.44-3.34,2.09-.67.38-1.35.71-2.02,1.07-1.56.84,2.69-.79.17-.08-2.95.83,1.34.32-.25.21,2.25.16,3.65.94,5.96,3.35l.61,1.4c-.25-1.08-.28-1.14-.11-.15l.11.7c-.02-.64,0-1.27.07-1.91-.81,2.66.56-1.27.79-1.95.74-2.19.33-.86.12-.38.42-.94.9-1.85,1.38-2.75,1.01-1.88,2.11-3.7,3.28-5.49,4.18-6.4,7.65-10.28,13.2-16.62,3.31-3.77,6.67-7.52,10.33-10.96,1.66-1.56,3.54-3.23,5.2-4.37,2.03-1.4,3.74-2.31,5.02-2.73,6.16-2.02,10.16-8.29,8.38-14.76-1.66-6.03-8.58-10.41-14.76-8.38h0Z"/>
    <line class="st2" x1="99.78" y1="224.91" x2="285.95" y2="216.44"/>
    <line class="st2" x1="285.95" y1="216.44" x2="292.06" y2="338.22"/>
    <line class="st2" x1="99.78" y1="224.91" x2="106.19" y2="343.58"/>
    <line class="st2" x1="106.19" y1="347.35" x2="292.06" y2="338.22"/>
    <g>
      <path class="st0" d="M316.71,271.58c-.9.61-2,.84-3.07,1.02-12.79,2.21-26.2.69-38.17-4.33-1.48-.62-3.44-1.19-4.46.05-.48.58-.56,1.39-.57,2.15-.27,10.39,6.25,20.19,15.04,25.75,8.79,5.55,19.51,7.34,29.91,7.13"/>
      <path d="M315.95,270.28c-1.61.99-3.83,1.09-5.67,1.31-2.02.25-4.06.4-6.09.46-4.16.13-8.35-.1-12.46-.75s-7.99-1.61-11.84-2.95c-2.74-.95-7.4-3.93-9.94-1.1-1.17,1.3-1.07,3.28-1,4.91s.32,3.4.7,5.05c.78,3.3,2.18,6.48,4.01,9.34,3.88,6.06,9.58,10.73,16.12,13.66,8.02,3.59,16.87,4.78,25.61,4.62,1.93-.03,1.93-3.03,0-3-13.77.25-28.78-3.16-37.6-14.61-1.92-2.49-3.49-5.3-4.51-8.28-.52-1.54-.93-3.13-1.15-4.74-.1-.74-.16-1.48-.19-2.23s-.19-1.76.1-2.43c.54-1.22,3.04.17,3.86.51,1.75.71,3.53,1.34,5.33,1.89,3.68,1.14,7.45,1.95,11.26,2.47,4.17.57,8.39.78,12.59.59,2.17-.1,4.33-.3,6.48-.6,2-.27,4.13-.47,5.89-1.55,1.64-1.01.14-3.6-1.51-2.59h0Z"/>
    </g>
    <g>
      <path class="st0" d="M93.73,273.93c4.51-6.11,14.59-4.31,18.59,2.19s2.82,15.45-.96,22.1c-1.67,2.93-4.11,5.76-7.3,6.17-2.36.31-4.71-.79-6.65-2.28-4.94-3.79-7.9-10.36-7.6-16.86.3-6.5,3.86-12.72,9.13-15.97"/>
      <path d="M95.03,274.69c3.07-4.02,8.98-3.59,12.84-1.05,5.01,3.3,6.11,10.11,5.14,15.64-.57,3.25-1.76,6.41-3.54,9.19-1.64,2.55-4.18,5.08-7.47,4.32-3.05-.7-5.67-3.32-7.36-5.83s-2.85-5.53-3.2-8.59c-.8-6.87,2.39-14.07,8.29-17.79,1.63-1.03.12-3.62-1.51-2.59-6.3,3.98-10.12,11.38-9.88,18.82s4.42,15.53,11.5,18.41c8.3,3.38,13.74-6.14,15.57-12.81s1.21-15.61-4.68-20.39c-5.43-4.4-13.78-4.71-18.25,1.15-1.17,1.53,1.43,3.03,2.59,1.51h0Z"/>
    </g>
  </g>
</svg>